<svg clip-rule="evenodd" fill-rule="evenodd" stroke-linejoin="round" stroke-miterlimit="1.414" viewBox="0 0 512 512" xmlns="http://www.w3.org/2000/svg" xmlns:serif="http://www.serif.com/"><g id="CZECH-REPUBLIC" transform="matrix(1.043188 0 0 1.043361 -11.5402 -11.15541)"><g><path d="m16.786 256h478.428v85.156h-.287v34.594c0 66.088-53.588 119.745-119.606 119.75h-239.214c-8.104 0-16.019-.809-23.672-2.35l-.64-.131c-42.458-8.791-76.714-40.143-89.689-80.96l-.169-.537c-3.533-11.298-5.437-23.314-5.437-35.772v-34.594h.286z" fill="#e52e24"/></g><g><path d="m16.786 256v-85.156h.287v-34.594c0-57.776 40.955-106.05 95.362-117.283l.735-.15c7.602-1.52 15.463-2.317 23.509-2.317h239.214c53.373.001 98.627 35.077 114.001 83.441l.169.537c3.533 11.298 5.437 23.314 5.437 35.772v34.594h-.286v85.156z" fill="#fff"/></g><g><path d="m256 256-204.563 204.297c-13.304-13.355-23.481-29.834-29.331-48.238l-.169-.537c-3.533-11.298-5.437-23.314-5.437-35.772v-34.594h.286v-170.312h.287v-34.594c0-32.843 13.234-62.616 34.651-84.259z" fill="#0b578f"/></g></g></svg>